<svg 
  xmlns="http://www.w3.org/2000/svg"
  width="44"
  height="44"
  viewBox="0 0 44 44" 
  fill="none">
  <g clip-path="url(#clip0_11_2)">
    <path 
      d="M22 44C34.1503 44 44 34.1503 44 22C44 9.84974 34.1503 0 22 0C9.84974 0 0 9.84974 0 22C0 34.1503 9.84974 44 22 44Z" 
      fill="#FFF312"/>
    <path 
      d="M17.6067 15.8528L10.4865 28.1472H4L9.55922 18.5476C10.4214 17.0587 12.5722 15.8528 14.3634 15.8528H17.6067ZM33.5135 18.9264C33.5135 17.2292 34.9655 15.8528 36.7567 15.8528C38.548 15.8528 40 17.2292 40 18.9264C40 20.6236 38.548 22 36.7567 22C34.9655 22 33.5135 20.6236 33.5135 18.9264ZM18.8231 15.8528H25.3096L18.1894 28.1472H11.7029L18.8231 15.8528ZM26.4838 15.8528H32.9703L27.4111 25.4524C26.5489 26.9405 24.3981 28.1472 22.6069 28.1472H19.3636L26.4838 15.8528Z" 
      fill="black"/>
  </g>
  <defs>
    <clipPath id="clip0_11_2">
      <rect width="44" height="44" fill="white"/>
  </clipPath>
  </defs>
</svg>
